. 
 
http://www.torrenting.com          :     Once & For all ;)


               www . Torrenting . Com 

(((((((((((((= Enjoy No RAR releases =))))))))))))))))))))


...................................NFO:....................................

.Rollerball.1975.DVDRip.XviD.AC3-SiC

Poster:
[IMG]http://i.imgur.com/V91jn.jpg[/IMG]

IMDB Link: 
http://www.imdb.com/title/tt0073631/

Description:
In a corporate controlled future, an ultra-violent sport known as Rollerball represents the world, and one of it's powerful athletes is out to defy those who want him out of the game. 

General:
Complete name                            : Rollerball.1975.DVDRip.XviD.AC3-SiC.avi
Format                                   : AVI
Format/Info                              : Audio Video Interleave
File size                                : 1.45 GiB
Duration                                 : 1h 59mn
Overall bit rate                         : 1 737 Kbps
Writing application                      : VirtualDubMod 1.5.10.2 (build 2540/release)
Writing library                          : VirtualDubMod build 2540/release

Video
ID                                       : 0
Format                                   : MPEG-4 Visual
Format profile                           : Advanced Simple@L5
Format settings, BVOP                    : 2
Format settings, QPel                    : No
Format settings, GMC                     : No warppoints
Format settings, Matrix                  : Default (H.263)
Muxing mode                              : Packed bitstream
Codec ID                                 : XVID
Codec ID/Hint                            : XviD
Duration                                 : 1h 59mn
Bit rate                                 : 1 279 Kbps
Width                                    : 720 pixels
Height                                   : 304 pixels
Display aspect ratio                     : 2.35:1
Frame rate                               : 25.000 fps
Color space                              : YUV
Chroma subsampling                       : 4:2:0
Bit depth                                : 8 bits
Scan type                                : Progressive
Compression mode                         : Lossy
Bits/(Pixel*Frame)                       : 0.234
Stream size                              : 1.07 GiB (74%)
Writing library                          : XviD 64

Audio
ID                                       : 1
Format                                   : AC-3
Format/Info                              : Audio Coding 3
Mode extension                           : CM (complete main)
Codec ID                                 : 2000
Duration                                 : 1h 59mn
Bit rate mode                            : Constant
Bit rate                                 : 448 Kbps
Channel(s)                               : 6 channels
Channel positions                        : Front: L C R, Side: L R, LFE
Sampling rate                            : 48.0 KHz
Bit depth                                : 16 bits
Compression mode                         : Lossy
Stream size                              : 383 MiB (26%)
Alignment                                : Split accross interleaves
Interleave, duration                     : 40 ms (1.00 video frame)
Interleave, preload duration             : 500 ms

Screenshots:
[IMG]http://i.imgur.com/z01tl.jpg[/IMG]
[IMG]http://i.imgur.com/WwXII.jpg[/IMG]
[IMG]http://i.imgur.com/k2ZFf.jpg[/IMG]
[IMG]http://i.imgur.com/YN9ho.jpg[/IMG]

Source:  Rollerball.1975.PAL.DVD5

Enjoy!

Respects to T00NG0D, ELEKTRI4KA, PA, YeFsTe, MrRep and everyone in the struggle...